<?xml version="1.0" encoding="iso-8859-1"?>
<!-- Generator: Adobe Illustrator 19.0.0, SVG Export Plug-In . SVG Version: 6.00 Build 0)  -->
<svg version="1.1" id="Layer_1" xmlns="http://www.w3.org/2000/svg" xmlns:xlink="http://www.w3.org/1999/xlink" x="0px" y="0px"
	 viewBox="0 0 503.467 503.467" style="enable-background:new 0 0 503.467 503.467;" xml:space="preserve">
<g transform="translate(1 13)">
	<g>
		<path style="fill:#F2EDDA;" d="M429.933,298.467V332.6h-358.4v-29.867v-4.267c0-18.773,15.36-34.133,34.133-34.133H395.8
			C414.573,264.333,429.933,279.693,429.933,298.467"/>
		<path style="fill:#F2EDDA;" d="M429.933,225.933L429.933,225.933c0,0.853,0,2.56,0,4.267v68.267
			c0-18.773-15.36-34.133-34.133-34.133H105.667c-18.773,0-34.133,15.36-34.133,34.133v-64V230.2V119.267
			c0-18.773,8.533-38.4,34.133-51.2c0,0,51.2-25.6,145.067-25.6c110.933,0,145.067,25.6,145.067,25.6
			c25.6,12.8,34.133,32.427,34.133,51.2V225.933z"/>
		<path style="fill:#F2EDDA;" d="M498.2,230.2v136.533c0,18.773-15.36,34.133-34.133,34.133H37.4
			c-18.773,0-34.133-15.36-34.133-34.133V230.2c0-18.773,14.507-34.133,34.133-34.133s34.133,15.36,34.133,34.133v4.267v64v4.267
			V332.6h358.4v-34.133V230.2c0-1.707,0-2.56,0-4.267c1.707-17.067,15.36-29.867,34.133-29.867
			C483.693,196.067,498.2,211.427,498.2,230.2"/>
	</g>
	<path style="fill:#FFD0A1;" d="M353.133,187.533c5.12,0,8.533-3.413,8.533-8.533c0-5.12-3.413-8.533-8.533-8.533
		S344.6,173.88,344.6,179C344.6,184.12,348.013,187.533,353.133,187.533z M250.733,187.533c5.12,0,8.533-3.413,8.533-8.533
		c0-5.12-3.413-8.533-8.533-8.533c-5.12,0-8.533,3.413-8.533,8.533C242.2,184.12,245.613,187.533,250.733,187.533z M148.333,187.533
		c5.12,0,8.533-3.413,8.533-8.533c0-5.12-3.413-8.533-8.533-8.533S139.8,173.88,139.8,179
		C139.8,184.12,143.213,187.533,148.333,187.533z M301.933,127.8c5.12,0,8.533-3.413,8.533-8.533c0-5.12-3.413-8.533-8.533-8.533
		s-8.533,3.413-8.533,8.533C293.4,124.387,296.813,127.8,301.933,127.8z M191,127.8c5.12,0,8.533-3.413,8.533-8.533
		c0-5.12-3.413-8.533-8.533-8.533c-5.12,0-8.533,3.413-8.533,8.533C182.467,124.387,185.88,127.8,191,127.8z"/>
</g>
<path style="fill:#51565F;" d="M448,452.267h-51.2c-2.56,0-4.267-1.707-4.267-4.267c0-2.56,1.707-4.267,4.267-4.267H448
	c2.56,0,4.267,1.707,4.267,4.267C452.267,450.56,450.56,452.267,448,452.267z M106.667,452.267h-51.2
	c-2.56,0-4.267-1.707-4.267-4.267c0-2.56,1.707-4.267,4.267-4.267h51.2c2.56,0,4.267,1.707,4.267,4.267
	C110.933,450.56,109.227,452.267,106.667,452.267z M465.067,418.133H38.4c-21.333,0-38.4-17.067-38.4-38.4V243.2
	c0-22.187,16.213-38.4,38.4-38.4s38.4,16.213,38.4,38.4V256c0,2.56-1.707,4.267-4.267,4.267c-2.56,0-4.267-1.707-4.267-4.267v-12.8
	c0-17.067-12.8-29.867-29.867-29.867S8.533,226.133,8.533,243.2v136.533c0,16.213,13.653,29.867,29.867,29.867h426.667
	c16.213,0,29.867-13.653,29.867-29.867V243.2c0-17.067-12.8-29.867-29.867-29.867c-17.067,0-29.867,12.8-29.867,29.867V256
	c0,2.56-1.707,4.267-4.267,4.267s-4.267-1.707-4.267-4.267v-12.8c0-21.333,17.067-38.4,38.4-38.4c21.333,0,38.4,17.067,38.4,38.4
	v136.533C503.467,401.067,486.4,418.133,465.067,418.133z M430.933,349.867h-358.4c-2.56,0-4.267-1.707-4.267-4.267v-34.133
	c0-21.333,17.067-38.4,38.4-38.4H396.8c21.333,0,38.4,17.067,38.4,38.4V345.6C435.2,348.16,433.493,349.867,430.933,349.867z
	 M76.8,341.333h349.867v-29.867c0-16.213-13.653-29.867-29.867-29.867H106.667c-16.213,0-29.867,13.653-29.867,29.867V341.333z
	 M354.133,204.8c-6.827,0-12.8-5.973-12.8-12.8c0-6.827,5.973-12.8,12.8-12.8s12.8,5.973,12.8,12.8
	C366.933,198.827,360.96,204.8,354.133,204.8z M354.133,187.733c-2.56,0-4.267,1.707-4.267,4.267c0,2.56,1.707,4.267,4.267,4.267
	S358.4,194.56,358.4,192C358.4,189.44,356.693,187.733,354.133,187.733z M251.733,204.8c-6.827,0-12.8-5.973-12.8-12.8
	c0-6.827,5.973-12.8,12.8-12.8c6.827,0,12.8,5.973,12.8,12.8C264.533,198.827,258.56,204.8,251.733,204.8z M251.733,187.733
	c-2.56,0-4.267,1.707-4.267,4.267c0,2.56,1.707,4.267,4.267,4.267c2.56,0,4.267-1.707,4.267-4.267
	C256,189.44,254.293,187.733,251.733,187.733z M149.333,204.8c-6.827,0-12.8-5.973-12.8-12.8c0-6.827,5.973-12.8,12.8-12.8
	c6.827,0,12.8,5.973,12.8,12.8C162.133,198.827,156.16,204.8,149.333,204.8z M149.333,187.733c-2.56,0-4.267,1.707-4.267,4.267
	c0,2.56,1.707,4.267,4.267,4.267S153.6,194.56,153.6,192C153.6,189.44,151.893,187.733,149.333,187.733z M430.933,192
	c-2.56,0-4.267-1.707-4.267-4.267v-55.467c0-14.507-5.12-34.987-31.573-47.787c-0.853-0.853-35.84-24.747-143.36-24.747
	c-92.16,0-142.507,24.747-143.36,24.747C87.04,95.573,76.8,110.933,76.8,132.267v55.467c0,2.56-1.707,4.267-4.267,4.267
	c-2.56,0-4.267-1.707-4.267-4.267v-55.467c0-16.213,5.973-39.253,36.693-54.613C107.52,76.8,157.867,51.2,251.733,51.2
	c110.933,0,145.92,25.6,147.627,26.453c23.04,11.093,35.84,30.72,35.84,54.613v55.467C435.2,190.293,433.493,192,430.933,192z
	 M302.933,145.067c-6.827,0-12.8-5.973-12.8-12.8c0-6.827,5.973-12.8,12.8-12.8s12.8,5.973,12.8,12.8
	C315.733,139.093,309.76,145.067,302.933,145.067z M302.933,128c-2.56,0-4.267,1.707-4.267,4.267c0,2.56,1.707,4.267,4.267,4.267
	s4.267-1.707,4.267-4.267C307.2,129.707,305.493,128,302.933,128z M192,145.067c-6.827,0-12.8-5.973-12.8-12.8
	c0-6.827,5.973-12.8,12.8-12.8c6.827,0,12.8,5.973,12.8,12.8C204.8,139.093,198.827,145.067,192,145.067z M192,128
	c-2.56,0-4.267,1.707-4.267,4.267c0,2.56,1.707,4.267,4.267,4.267s4.267-1.707,4.267-4.267C196.267,129.707,194.56,128,192,128z"/>
<g>
</g>
<g>
</g>
<g>
</g>
<g>
</g>
<g>
</g>
<g>
</g>
<g>
</g>
<g>
</g>
<g>
</g>
<g>
</g>
<g>
</g>
<g>
</g>
<g>
</g>
<g>
</g>
<g>
</g>
</svg>
